SCREENSHOTS:

 
http://bayimg.com/napLdAacb


General
Complete name                    : UEFA Champions League 2008-09 - SemiFinal - Chelsea 1-1 Barcelona [Iniesta].mkv
Format                           : Matroska
File size                        : 77.9 MiB
Duration                         : 1mn 26s
Overall bit rate                 : 7 558 Kbps
Encoded date                     : UTC 2009-05-11 19:03:04
Writing application              : mkvmerge v2.5.3 ('Boogie') built on Mar  7 2009 15:00:41
Writing library                  : libebml v0.7.7 + libmatroska v0.8.1

Video
ID                               : 1
Format                           : AVC
Format/Info                      : Advanced Video Codec
Format profile                   : High@L4.0
Format settings, CABAC           : Yes
Format settings, ReFrames        : 7 frames
Muxing mode                      : Container profile=Unknown@4.0
Codec ID                         : V_MPEG4/ISO/AVC
Duration                         : 1mn 26s
Bit rate                         : 7 024 Kbps
Width                            : 1 280 pixels
Height                           : 720 pixels
Display aspect ratio             : 16:9
Frame rate                       : 50.000 fps
Color space                      : YUV
Chroma subsampling               : 4:2:0
Bit depth                        : 8 bits
Scan type                        : Progressive
Bits/(Pixel*Frame)               : 0.152
Stream size                      : 72.4 MiB (93%)
Language                         : English

Audio
ID                               : 2
Format                           : AC-3
Format/Info                      : Audio Coding 3
Mode extension                   : CM (complete main)
Codec ID                         : A_AC3
Duration                         : 1mn 26s
Bit rate mode                    : Constant
Bit rate                         : 384 Kbps
Channel(s)                       : 6 channels
Channel positions                : Front: L C R, Side: L R, LFE
Sampling rate                    : 48.0 KHz
Bit depth                        : 16 bits
Video delay                      : 8ms
Stream size                      : 3.96 MiB (5%)
